<?xml version="1.0" encoding="UTF-8" standalone="no"?>
<svg
   xmlns:dc="http://purl.org/dc/elements/1.1/"
   xmlns:cc="http://creativecommons.org/ns#"
   xmlns:rdf="http://www.w3.org/1999/02/22-rdf-syntax-ns#"
   xmlns:svg="http://www.w3.org/2000/svg"
   xmlns="http://www.w3.org/2000/svg"
   xmlns:sodipodi="http://sodipodi.sourceforge.net/DTD/sodipodi-0.dtd"
   xmlns:inkscape="http://www.inkscape.org/namespaces/inkscape"
   width="90.546165mm"
   height="159.24512mm"
   viewBox="0 0 90.546166 159.24511"
   version="1.1"
   id="svg8"
   inkscape:version="1.0.1 (3bc2e813f5, 2020-09-07)"
   sodipodi:docname="drawing.svg"
   inkscape:export-filename="C:\Users\luisg\Desktop\Gui\Computer Science\react\login\login\src\images\moon.png"
   inkscape:export-xdpi="96"
   inkscape:export-ydpi="96">
  <defs
     id="defs2" />
  <sodipodi:namedview
     id="base"
     pagecolor="#ffffff"
     bordercolor="#666666"
     borderopacity="1.0"
     inkscape:pageopacity="0.0"
     inkscape:pageshadow="2"
     inkscape:zoom="0.49497475"
     inkscape:cx="427.53644"
     inkscape:cy="364.58091"
     inkscape:document-units="mm"
     inkscape:current-layer="layer1"
     inkscape:document-rotation="0"
     showgrid="false"
     inkscape:snap-bbox="true"
     inkscape:snap-global="false"
     fit-margin-top="0"
     fit-margin-left="0"
     fit-margin-right="0"
     fit-margin-bottom="0"
     inkscape:window-width="1600"
     inkscape:window-height="1201"
     inkscape:window-x="2391"
     inkscape:window-y="-9"
     inkscape:window-maximized="1" />
  <metadata
     id="metadata5">
    <rdf:RDF>
      <cc:Work
         rdf:about="">
        <dc:format>image/svg+xml</dc:format>
        <dc:type
           rdf:resource="http://purl.org/dc/dcmitype/StillImage" />
        <dc:title></dc:title>
      </cc:Work>
    </rdf:RDF>
  </metadata>
  <g
     inkscape:label="Layer 1"
     inkscape:groupmode="layer"
     id="layer1"
     transform="translate(-63.089047,-65.696345)">
    <g
       id="g1250"
       inkscape:export-xdpi="96"
       inkscape:export-ydpi="96">
      <g
         id="g1335"
         inkscape:export-xdpi="96"
         inkscape:export-ydpi="96">
        <path
           style="fill:#f8841a;fill-opacity:1;stroke:#6673f2;stroke-width:0.269261px;stroke-linecap:butt;stroke-linejoin:miter;stroke-opacity:1"
           d="m 85.39628,140.62933 53.69924,0.26727 5.536,-29.26637 -1.384,-13.230014 -12.04081,-8.151818 -21.45202,-3.608184 -19.791207,8.018186 -10.933608,11.49273 z"
           id="path836" />
        <g
           id="g948"
           transform="matrix(0.9905952,0,0,1.0367083,-84.40746,-39.230054)"
           style="fill:#6c00b5;fill-opacity:1;stroke:none;stroke-opacity:1">
          <path
             id="rect842"
             style="fill:#6c00b5;fill-opacity:1;stroke:none;stroke-width:0.319401;stroke-opacity:1"
             d="m 157.9145,228.71079 4.99523,-30.15821 5.22624,-6.09463 7.02343,-3.82367 7.20708,-0.35559 34.86837,0.74531 9.64489,3.07424 v 0 l 5.41655,7.13411 1.73434,28.42988 -0.56818,27.15536 H 156.4026 Z"
             sodipodi:nodetypes="ccccccccccccc" />
        </g>
        <path
           id="path867"
           style="fill:none;fill-opacity:1;stroke:#fffb00;stroke-width:0.8;stroke-miterlimit:4;stroke-dasharray:none;stroke-opacity:1"
           d="m 92.62663,175.47347 c 4.788235,-9.96907 6.774494,8.45613 17.84902,12.9836 11.07453,4.52748 27.04884,-6.55507 22.27926,3.42161 -4.76959,9.97669 -17.61322,14.40532 -28.69577,9.89465 -11.082556,-4.51068 -16.212536,-16.2547 -11.461616,-26.23899"
           sodipodi:nodetypes="csssc" />
        <path
           id="path86"
           style="fill:#ffdbac;fill-opacity:1;stroke:#ffcb88;stroke-width:0.268126;stroke-opacity:1"
           d="m 136.10985,109.27856 c 3.63125,7.1784 3.65031,13.49592 3.47767,20.81544 -0.18614,7.89204 -0.80473,19.60101 -7.53497,24.5 -12.98684,9.45319 -33.880452,9.94502 -42.972191,-3.73521 -3.624067,-5.45307 -3.040425,-14.27579 -2.907282,-21.62885 0.200878,-11.09368 1.892831,-18.48237 9.117515,-24.96009 6.614548,-5.930671 16.448418,-7.838493 23.973848,-6.10079 6.84313,1.580152 13.29735,4.09548 16.84541,11.1095 z"
           sodipodi:nodetypes="ssssssss" />
        <path
           style="fill:#fffb00;fill-opacity:1;stroke:#6c00b5;stroke-width:0.279px;stroke-linecap:butt;stroke-linejoin:miter;stroke-opacity:1"
           d="m 84.121063,139.59366 4.300831,5.26348 6.881341,-4.84796 2.580509,8.17228 7.311426,-7.61823 4.30084,3.18581 4.44419,-3.32431 5.44774,3.87837 2.5805,-3.18581 5.73444,5.67903 4.8743,-6.23309 2.43714,3.32432 4.73091,-4.01688 4.44421,-7.75674 -3.44067,2.35473 7.16806,-11.63509 -6.59462,6.23309 9.17512,-18.0067 -6.73797,7.89524 9.74856,-21.746566 -7.88486,8.726326 4.87427,-26.317487 -6.45125,16.206029 c 0,0 -1.57698,-25.901945 -1.72033,-25.070865 -0.14337,0.831075 -4.87429,20.776964 -4.87429,20.776964 l -6.73799,-24.655332 0.86018,20.499938 -18.78033,-21.192503 3.87076,18.560754 -9.60522,-6.64863 -6.45126,-7.202681 C 97.119398,82.027845 98.920949,76.729862 97.27146,81.29327 L 94.012985,87.789746 81.11047,81.695169 c 0,0 2.72386,12.327666 3.010593,13.020231 0.286711,0.692565 -13.045887,-12.604691 -13.045887,-12.604691 l 6.451258,21.746561 -12.472432,-8.864845 14.336136,23.547235 -16.199829,-9.5574 18.636966,19.66885 -12.759154,-4.98647 z"
           id="path88"
           sodipodi:nodetypes="cccccccccccccccccccccccsccccccccccscccccccc" />
        <path
           id="path870"
           style="fill:none;fill-opacity:1;stroke:#fffb00;stroke-width:0.8;stroke-miterlimit:4;stroke-dasharray:none;stroke-opacity:1"
           d="m 96.334761,183.39141 c 0.131847,-0.96076 0.811563,-1.59467 1.518649,-1.4163 0.707085,0.17837 1.174117,1.10155 1.043461,2.06261 -0.130654,0.96106 -1.045819,0.98231 -1.753126,0.80557 -0.707307,-0.17675 -0.939247,-0.48465 -0.809782,-1.44601"
           sodipodi:nodetypes="csssc" />
        <path
           id="path872"
           style="fill:none;fill-opacity:1;stroke:#fffb00;stroke-width:0.8;stroke-miterlimit:4;stroke-dasharray:none;stroke-opacity:1"
           d="m 103.08388,190.07871 c 0.13523,-1.14204 0.83237,-1.89555 1.55759,-1.68353 0.33558,0.0981 0.14597,1.14174 0.33977,1.53573 0.22502,0.45745 0.80245,0.30228 0.73045,0.91606 -0.13401,1.14239 -0.83035,1.89775 -1.55579,1.68765 -0.53129,-0.15387 -0.6948,-0.87746 -0.81855,-1.65206 -0.0452,-0.28306 -0.28982,-0.49105 -0.25428,-0.79688"
           sodipodi:nodetypes="csssssc" />
        <path
           id="path874"
           style="fill:none;fill-opacity:1;stroke:#fffb00;stroke-width:0.8;stroke-miterlimit:4;stroke-dasharray:none;stroke-opacity:1"
           d="m 123.65914,192.97677 c 0.0389,-0.33697 0.45623,-0.16765 0.57716,-0.42214 0.28891,-0.60804 0.44303,-1.41086 0.94149,-1.26139 0.70708,0.21203 1.17412,1.30939 1.04346,2.45179 -0.13066,1.14239 -0.80959,1.89775 -1.51689,1.68765 -0.25557,-0.0759 -0.0546,-0.69363 -0.23067,-0.96245 -0.31125,-0.47517 -0.89724,-0.76361 -0.81455,-1.49346"
           sodipodi:nodetypes="csssssc" />
        <path
           id="path876"
           style="fill:none;fill-opacity:1;stroke:#fffb00;stroke-width:0.8;stroke-miterlimit:4;stroke-dasharray:none;stroke-opacity:1"
           d="m 111.17502,199.35407 c 0.17241,-1.17829 1.06127,-1.95572 1.98592,-1.73697 0.3966,0.0938 0.54646,1.30064 0.79066,1.66215 0.32513,0.48134 0.49769,0.1916 0.57387,0.86747 0.17457,1.54877 0.23936,3.34877 -1.98363,1.74123 -0.76981,-0.55668 -1.53716,-1.34766 -1.36787,-2.52668"
           sodipodi:nodetypes="cssssc" />
        <path
           id="path878"
           style="fill:none;fill-opacity:1;stroke:#fffb00;stroke-width:0.8;stroke-miterlimit:4;stroke-dasharray:none;stroke-opacity:1"
           d="m 94.591683,190.20699 c 0.06004,-0.50589 0.414554,-0.37204 0.643193,-0.68669 0.312088,-0.42948 0.552778,-1.2052 0.992275,-1.077 0.761476,0.22212 1.768572,1.55055 1.123728,2.56853 -0.518683,0.81882 -0.871861,1.98812 -1.633576,1.76802 -0.761712,-0.2201 -1.2659,-1.36839 -1.126479,-2.56555"
           sodipodi:nodetypes="cssssc" />
        <path
           id="path880"
           style="fill:none;fill-opacity:1;stroke:#fffb00;stroke-width:0.8;stroke-miterlimit:4;stroke-dasharray:none;stroke-opacity:1"
           d="m 101.70117,198.21497 c -1.31271,-2.43697 -0.15255,-2.67211 1.67441,-1.44303 0.66419,0.44684 1.29454,1.12233 1.15048,2.10153 -0.0577,0.39254 0.6378,1.20424 -0.42776,0.98574 -0.48728,-0.0999 -0.77749,0.56871 -1.24471,0.46082 -0.77985,-0.18008 -1.29604,-1.11959 -1.1533,-2.09909"
           sodipodi:nodetypes="cssssc" />
        <path
           id="path882"
           style="fill:none;fill-opacity:1;stroke:#fffb00;stroke-width:0.8;stroke-miterlimit:4;stroke-dasharray:none;stroke-opacity:1"
           d="m 110.03571,193.7726 c 0.15213,-0.88825 0.93641,-1.47431 1.75228,-1.30941 0.81587,0.1649 1.02403,0.64043 0.87327,1.52896 -0.15076,0.88853 -0.60341,1.85401 -1.41953,1.6906 -0.43913,-0.0879 -0.0897,-0.61159 -0.30459,-0.99683 -0.18451,-0.33074 -0.97136,-0.49733 -0.90235,-0.9079"
           sodipodi:nodetypes="cssssc" />
        <path
           id="path884"
           style="fill:none;fill-opacity:1;stroke:#fffb00;stroke-width:0.8;stroke-miterlimit:4;stroke-dasharray:none;stroke-opacity:1"
           d="m 117.97493,197.22732 c 0.12846,-0.92451 0.79075,-1.5345 1.47971,-1.36286 0.68896,0.17164 1.00951,1.05129 1.01671,1.98478 0.0144,1.86974 -0.78883,1.53628 -1.478,1.3662 -0.68917,-0.17008 0.35014,-1.06303 -1.01842,-1.98812"
           sodipodi:nodetypes="csssc" />
        <path
           style="fill:none;fill-opacity:1;stroke:#fffb00;stroke-width:0.8;stroke-linecap:butt;stroke-linejoin:miter;stroke-miterlimit:4;stroke-dasharray:none;stroke-opacity:1"
           d="m 94.153105,174.0826 c 0.07874,-0.0315 0.160377,-0.0566 0.236236,-0.0945 0.08285,-0.0414 0.150992,-0.14636 0.236233,-0.18899 0.06427,-0.0321 0.180605,0.008 0.236236,-0.0472 0.01114,-0.0111 -0.01408,-0.0402 0,-0.0473 0.09541,-0.0477 0.566965,0.019 0.566965,-0.0945"
           id="path906" />
        <path
           style="fill:none;fill-opacity:1;stroke:#fffb00;stroke-width:0.8;stroke-linecap:butt;stroke-linejoin:miter;stroke-miterlimit:4;stroke-dasharray:none;stroke-opacity:1"
           d="m 96.704445,185.04391 c 0.162494,0.0613 0.312619,0.0625 0.472469,0.0945 0.19767,-0.0856 0.05465,0.0746 0.09449,0.0945 0.02817,0.0141 0.06632,-0.0141 0.0945,0 0.01408,0.007 -0.01408,0.0402 0,0.0472 0.04226,0.0211 0.108331,-0.0334 0.14174,0 0.01114,0.0111 -0.01114,0.0361 0,0.0472 0.02186,0.0218 0.113216,-0.0143 0.14174,0 0.112348,0.0562 0.508257,0.10596 0.614212,0 0.01114,-0.0111 -0.01114,-0.0361 0,-0.0472 0.02363,-0.0236 0.118118,0.0236 0.141743,0 0.02903,-0.029 0.03121,-0.1101 0.09449,-0.14174 0.149021,-0.0745 0.332933,-0.23623 0.472469,-0.23623"
           id="path908" />
        <path
           style="fill:none;fill-opacity:1;stroke:#fffb00;stroke-width:0.8;stroke-miterlimit:4;stroke-dasharray:none;stroke-opacity:1"
           d="m 96.184727,192.31995 c 0.063,-0.0787 0.117681,-0.16493 0.188989,-0.23624 0.08865,-0.0886 0.266599,-0.20247 0.330729,-0.33072 0.01426,-0.0285 -0.02185,-0.11991 0,-0.14175 0.01114,-0.0111 0.03611,0.0111 0.04725,0 0.03273,-0.0327 0.0145,-0.2035 0.04725,-0.23623 0.01114,-0.0111 0.03611,0.0111 0.04725,0 0.02997,-0.03 -0.01966,-0.14965 0,-0.18899 0.01574,-0.0315 0.07875,-0.0157 0.09449,-0.0472 0.01408,-0.0282 -0.01407,-0.0663 0,-0.0945 0.007,-0.0141 0.03611,0.0111 0.04725,0 0.02228,-0.0223 -0.01408,-0.0663 0,-0.0945 0.09832,-0.19663 -0.0033,0.0505 0.0945,-0.0472 0.02959,-0.0296 -0.0019,-0.0926 0.04725,-0.14174"
           id="path912" />
        <path
           style="fill:none;fill-opacity:1;stroke:#fffb00;stroke-width:0.8;stroke-miterlimit:4;stroke-dasharray:none;stroke-opacity:1"
           d="m 96.846185,188.3512 c 0.50781,0.10156 0.09637,-0.0454 0.283483,0.14174 0.01114,0.0111 0.0402,-0.0141 0.04725,0 0.01408,0.0282 -0.01746,0.0683 0,0.0945 0.03317,0.0498 0.116827,0.0696 0.14174,0.0945 0.02186,0.0219 -0.01426,0.11321 0,0.14174 0.09832,0.19663 -0.0033,-0.0505 0.0945,0.0472 0.02228,0.0223 -0.02228,0.0722 0,0.0945 0.05324,0.0532 0.14174,-0.0725 0.14174,0.0472"
           id="path914" />
        <path
           style="fill:none;fill-opacity:1;stroke:#fffb00;stroke-width:0.8;stroke-miterlimit:4;stroke-dasharray:none;stroke-opacity:1"
           d="m 103.74425,190.99703 c -0.004,0.24112 0.0407,0.5067 0.14174,0.70871 0.0211,0.0423 -0.0211,0.0995 0,0.14174 0.0526,0.10512 0.23624,-0.12754 0.23624,0.0945"
           id="path916" />
        <path
           style="fill:none;fill-opacity:1;stroke:#fffb00;stroke-width:0.8;stroke-miterlimit:4;stroke-dasharray:none;stroke-opacity:1"
           d="m 109.93361,192.74517 c 0.15396,-0.27197 0.40792,-0.4402 0.66146,-0.56696 0.0282,-0.0141 0.0804,0.0282 0.0945,0 0.0141,-0.0282 -0.0223,-0.0722 0,-0.0945 0.0236,-0.0236 0.11812,0.0236 0.14174,0 0.0111,-0.0111 -0.0111,-0.0361 0,-0.0472 0.0696,-0.0696 0.22957,-0.0472 0.33073,-0.0472"
           id="path918" />
        <path
           style="fill:none;fill-opacity:1;stroke:#fffb00;stroke-width:0.8;stroke-miterlimit:4;stroke-dasharray:none;stroke-opacity:1"
           d="m 118.72155,196.90291 c 0.005,0.1799 -0.0579,0.41987 0.14175,0.51972 0.0282,0.0141 0.0722,-0.0223 0.0945,0 0.0218,0.0218 -0.0143,0.11321 0,0.14174 0.0812,0.16245 0.0945,0.28217 0.0945,0.47247"
           id="path920" />
        <path
           style="fill:none;fill-opacity:1;stroke:#fffb00;stroke-width:0.8;stroke-miterlimit:4;stroke-dasharray:none;stroke-opacity:1"
           d="m 119.94998,190.14659 c 0.12599,0.0315 0.24987,0.0731 0.37797,0.0945 0.0273,0.005 1.0141,0.0557 1.03944,0.0472 0.0968,-0.0323 0.18491,-0.18491 0.23623,-0.23624 0.003,-0.13303 0.10653,-0.012 0.14174,-0.0472 0.0978,-0.0978 -0.14938,0.004 0.0472,-0.0945 0.0811,-0.0406 0.30564,0.0181 0.37798,0 0.0416,-0.0104 0.42522,-0.25466 0.42522,-0.0945"
           id="path922" />
        <path
           style="fill:none;fill-opacity:1;stroke:#fffb00;stroke-width:0.8;stroke-miterlimit:4;stroke-dasharray:none;stroke-opacity:1"
           d="m 102.9883,202.05284 c 0.26732,-0.0112 0.5267,-0.0263 0.61421,0.23623 0.0105,0.0315 0.0278,0.12228 0.0472,0.14174 0.082,0.0821 0.4389,0.0609 0.47247,0.0945 0.0938,0.0938 -0.22375,0.0149 0.0945,0.0945 0.0458,0.0115 0.0945,0 0.14174,0"
           id="path924" />
        <path
           style="fill:none;fill-opacity:1;stroke:#fffb00;stroke-width:0.8;stroke-miterlimit:4;stroke-dasharray:none;stroke-opacity:1"
           d="m 91.412779,182.68156 c -0.02946,0.0166 -0.05865,1.28707 -0.0945,1.32291 -0.0498,0.0498 -0.149919,0.0359 -0.188987,0.0945 -0.0227,0.034 -0.02817,0.51062 0,0.56696 0.06957,0.13915 0.125373,0.12537 0.188987,0.18899 0.04194,0.0419 -0.09449,0.28467 -0.09449,0.37798 0,0.074 -0.04715,0.42532 0,0.47246 0.08801,0.088 0.09449,-0.007 0.09449,0.18899"
           id="path926" />
        <path
           style="fill:none;fill-opacity:1;stroke:#fffb00;stroke-width:0.8;stroke-miterlimit:4;stroke-dasharray:none;stroke-opacity:1"
           d="m 130.15534,192.79242 c -0.0945,0.15749 -0.18899,0.31498 -0.28349,0.47247 -0.063,0.063 -0.13957,0.11486 -0.18899,0.18899 -0.12897,0.19346 0.0348,0.81562 -0.0945,0.94494 -0.12128,0.12128 -0.28713,0.19264 -0.37798,0.28348 -0.0472,0.0472 0.0473,0.23623 0,0.28348 -0.0223,0.0223 -0.063,0 -0.0945,0 0,0.063 0.0282,0.13264 0,0.18899 -0.0141,0.0282 -0.0722,-0.0223 -0.0945,0 -0.0446,0.0446 0.0445,0.14444 0,0.18899 -0.1038,0.10379 -0.28349,-0.0347 -0.28349,0.18899"
           id="path928" />
        <path
           style="fill:none;fill-opacity:1;stroke:#fffb00;stroke-width:0.8;stroke-miterlimit:4;stroke-dasharray:none;stroke-opacity:1"
           d="m 116.83167,203.37575 c 0.1623,-0.24651 0.46425,0.0986 0.66146,0 0.1134,-0.0567 0.17009,-0.22678 0.28348,-0.28348 0.19415,-0.0971 0.44604,-0.0681 0.56697,-0.18899 0.0315,-0.0315 0.063,-0.25198 0.0945,-0.28348 0.0779,-0.0778 0.18899,0.005 0.18899,-0.18899"
           id="path930" />
        <path
           style="fill:none;fill-opacity:1;stroke:#fffb00;stroke-width:0.8;stroke-miterlimit:4;stroke-dasharray:none;stroke-opacity:1"
           d="m 115.60325,196.38319 c 0.0252,0.22807 -0.11933,0.79078 0.18899,0.94494 0.0282,0.0141 0.0722,-0.0223 0.0945,0 0.19552,0.19552 -0.29876,-0.008 0.0945,0.18899 0.0282,0.0141 0.0722,-0.0223 0.0945,0 0.188,0.188 -0.23835,0.47247 0.18899,0.47247"
           id="path932" />
        <path
           style="fill:none;fill-opacity:1;stroke:#fffb00;stroke-width:0.8;stroke-miterlimit:4;stroke-dasharray:none;stroke-opacity:1"
           d="m 111.729,199.59599 c 0.063,0.18899 0.13426,0.37542 0.18898,0.56696 0.0388,0.1357 -0.0622,0.34807 0,0.47248 0.006,0.0127 0.37099,0.27649 0.37798,0.28348 0.0315,0.0315 0.063,0.25198 0.0945,0.28348 0.0446,0.0445 0.14445,-0.0445 0.18899,0 0.063,0.063 0.0315,0.22049 0.0945,0.28348 0.0619,0.062 0.33063,0.0472 0.37797,0.0945 0.0498,0.0498 0.0895,0.21714 0.18899,0.28349 0.0988,0.0659 0.56696,0.0949 0.56696,0.28348"
           id="path934" />
        <path
           style="fill:none;fill-opacity:1;stroke:#fffb00;stroke-width:0.8;stroke-miterlimit:4;stroke-dasharray:none;stroke-opacity:1"
           d="m 102.94105,197.04465 c 0.2637,0.0979 0.56596,0.84995 0.75595,0.94494 0.12079,0.0604 0.18899,-0.10186 0.18899,0.0945"
           id="path936" />
        <path
           style="fill:none;fill-opacity:1;stroke:#fffb00;stroke-width:0.8;stroke-miterlimit:4;stroke-dasharray:none;stroke-opacity:1"
           d="m 124.10771,191.65849 c -0.0963,0.26546 -0.27543,0.61019 -0.56696,0.75595 -0.0563,0.0282 -0.14444,-0.0445 -0.18899,0 -0.19551,0.19551 0.29877,-0.008 -0.0945,0.18899 -0.10336,0.0517 -0.28046,0.0915 -0.37798,0.18899 -0.0279,0.0279 -0.005,0.45882 0,0.47247 0.0282,0.0845 0.16082,0.10447 0.18899,0.18899 0.0215,0.0645 0.0463,0.51874 0.0945,0.56696 0.0445,0.0445 0.14444,-0.0445 0.18898,0 0.0446,0.0445 -0.0445,0.14444 0,0.18899 0.0223,0.0223 0.0663,-0.0141 0.0945,0 0.20278,0.10139 0.004,0.10319 0.0945,0.28348 0.0282,0.0564 0.14444,-0.0445 0.18899,0 0.0794,0.0794 0.2124,0.28348 0.37797,0.28348"
           id="path938" />
      </g>
    </g>
    <g
       id="g1209"
       inkscape:export-xdpi="96"
       inkscape:export-ydpi="96">
      <g
         id="g124"
         inkscape:export-xdpi="96"
         inkscape:export-ydpi="96"
         transform="matrix(1.0534282,0,0,0.99291817,147.29403,-2.2451339)">
        <g
           id="g120"
           transform="matrix(0.94035379,0,0,1.0441024,3.6414645,-4.9412869)" />
      </g>
      <g
         id="g1368"
         inkscape:export-xdpi="96"
         inkscape:export-ydpi="96">
        <path
           style="fill:#f8841a;fill-opacity:1;stroke:#f8841a;stroke-width:0.264583px;stroke-linecap:butt;stroke-linejoin:miter;stroke-opacity:1"
           d="M 76.171816,140.04923 128.0221,140.3165 133.36749,111.05049 132.03115,97.820645 120.40492,89.668926 99.691533,86.060787 80.581761,94.078874 70.024616,105.57146 Z"
           id="path112"
           transform="matrix(1.0356595,0,0,1.0000123,148.30763,-2.8727647)" />
        <path
           id="path114"
           style="fill:#ffdbac;fill-opacity:1;stroke:#ffc171;stroke-width:0.264583;stroke-opacity:1"
           d="m 42.732707,159.35931 c -0.944334,7.77758 -4.408081,12.7913 -8.582587,18.48801 -4.501011,6.14228 -11.462716,15.05787 -19.738637,15.05787 -15.9694145,0 -33.555819,-11.65396 -33.555815,-27.72775 10e-7,-6.40717 5.343049,-13.05733 9.5032942,-18.80335 6.2766348,-8.66913 11.7483638,-13.54484 21.3035848,-14.51001 8.748262,-0.88367 17.948846,3.27397 23.228427,8.98781 4.800913,5.19579 8.764439,10.90797 7.841733,18.50742 z"
           sodipodi:nodetypes="ssssssss"
           transform="matrix(0.81323201,-0.59195615,0.5656258,0.85108865,151.13005,-7.1514265)" />
        <path
           style="fill:#ff3c47;fill-opacity:1;stroke:#6eff9d;stroke-width:0.275313px;stroke-linecap:butt;stroke-linejoin:miter;stroke-opacity:1"
           d="m 77.789873,140.04308 4.341668,5.07712 6.946675,-4.6763 2.605004,7.88291 7.380842,-7.34848 4.341668,3.073 4.48639,-3.2066 5.49946,3.74104 2.605,-3.073 5.78889,5.47795 4.92057,-6.01239 2.46027,3.20661 4.77584,-3.87465 4.4864,-7.48208 -3.47334,2.27135 7.23612,-11.22311 -6.65723,6.01238 9.26223,-17.36911 -6.80194,7.61568 9.84111,-20.976542 -7.95972,8.417332 4.92055,-25.385617 -6.5125,15.632198 c 0,0 -1.59195,-24.984796 -1.73667,-24.183144 -0.14473,0.801648 -4.92056,20.041283 -4.92056,20.041283 l -6.80196,-23.782324 0.86834,19.774067 -18.95863,-20.442109 3.90751,17.903546 -9.69641,-6.413212 -6.512505,-6.947645 C 90.911619,84.515598 92.73027,79.405208 91.065121,83.807032 L 87.775715,90.073478 74.7507,84.194701 c 0,0 2.749725,11.891162 3.039173,12.559204 0.289443,0.668043 -13.16974,-12.158378 -13.16974,-12.158378 l 6.512509,20.976543 -12.590848,-8.550949 14.472239,22.713459 -16.35363,-9.21899 18.813912,18.97241 -12.880293,-4.80991 z"
           id="path116"
           sodipodi:nodetypes="cccccccccccccccccccccccsccccccccccscccccccc"
           transform="matrix(0.99059521,0,0,1.0367082,151.13005,-7.1514265)" />
        <path
           id="path118"
           style="fill:#6eff9d;fill-opacity:1;stroke:none;stroke-width:0.319401;stroke-opacity:1"
           d="m 59.852367,195.89745 4.995229,-30.15821 5.226235,-6.09463 7.023436,-3.82367 7.20708,-0.35559 34.868363,0.74531 9.64489,3.07424 v 0 l 5.41655,7.13411 1.73434,28.42988 -0.56818,27.15536 H 58.340462 Z"
           sodipodi:nodetypes="ccccccccccccc"
           transform="matrix(0.99059521,0,0,1.0367082,151.13005,-7.1514265)" />
        <path
           id="path1053"
           style="fill:none;fill-opacity:1;stroke:#ff000e;stroke-width:0.8;stroke-miterlimit:4;stroke-dasharray:none;stroke-opacity:1"
           d="m 228.95705,183.48483 c 0.77663,-4.11114 3.30559,-7.07983 6.60316,-9.19149 4.90331,-3.13993 10.59151,-8.64397 17.77876,-7.3269 6.66277,1.22096 10.20552,6.43162 14.46674,10.97285 2.94861,3.14236 3.15258,8.45322 2.28605,13.08351 -0.90718,4.84745 -5.17788,6.80074 -7.74124,10.62973 -3.1136,4.65091 -10.16764,7.09911 -16.61247,5.92917 -4.16032,-0.75523 -6.2248,-3.87893 -10.09388,-5.12193 -4.24484,-1.36374 -5.04297,-7.4519 -5.59397,-12.32035 -0.22164,-1.95831 -1.48376,-4.54817 -1.10595,-6.58618"
           sodipodi:nodetypes="cssssssssc" />
        <path
           id="path1056"
           style="fill:none;fill-opacity:1;stroke:#ff000e;stroke-width:0.8;stroke-miterlimit:4;stroke-dasharray:none;stroke-opacity:1"
           d="m 244.06338,174.06102 c 0.28686,-1.38436 1.76573,-2.29775 3.30415,-2.04074 1.53842,0.25701 3.28769,1.99053 2.27027,2.97201 -0.94573,0.91232 -1.76142,2.30043 -3.30032,2.04575 -1.53889,-0.25468 -2.08503,-1.58334 -1.80336,-2.96856"
           sodipodi:nodetypes="csssc" />
        <path
           id="path1058"
           style="fill:none;fill-opacity:1;stroke:#ff000e;stroke-width:0.8;stroke-miterlimit:4;stroke-dasharray:none;stroke-opacity:1"
           d="m 256.91137,178.6739 c 0.17841,-0.95665 1.13614,-2.71235 1.70452,-2.00471 0.71091,0.88508 0.9003,-0.20053 1.37935,-0.11161 1.43585,0.26653 2.38424,1.646 2.11892,3.08208 -0.26532,1.43608 -1.94994,1.19686 -3.0803,2.12152 -1.82713,1.49463 -2.4524,-1.34773 -2.12411,-3.07851"
           sodipodi:nodetypes="cssssc" />
        <path
           id="path1060"
           style="fill:none;fill-opacity:1;stroke:#ff000e;stroke-width:0.8;stroke-miterlimit:4;stroke-dasharray:none;stroke-opacity:1"
           d="m 237.62977,180.85672 c 0.23905,-1.128 1.53685,-2.1181 2.75346,-1.66283 1.05179,0.39359 1.19173,2.04294 1.89189,2.42164 1.01412,0.54851 -1.46785,1.87443 -2.75027,1.66691 -1.28241,-0.20752 -2.13125,-1.29013 -1.89652,-2.41883"
           sodipodi:nodetypes="csssc" />
        <path
           id="path1062"
           style="fill:none;fill-opacity:1;stroke:#ff000e;stroke-width:0.8;stroke-miterlimit:4;stroke-dasharray:none;stroke-opacity:1"
           d="m 247.26177,189.05251 c 0.20081,-1.38215 1.30639,-2.38513 2.3129,-1.36049 1.17074,1.19183 2.32972,0.11044 1.58919,1.98134 -0.34757,0.87811 -1.233,1.53362 -2.31023,1.36383 -1.07722,-0.16979 -1.79025,-1.05556 -1.59308,-1.97904"
           sodipodi:nodetypes="csssc" />
        <path
           id="path1064"
           style="fill:none;fill-opacity:1;stroke:#ff000e;stroke-width:0.8;stroke-miterlimit:4;stroke-dasharray:none;stroke-opacity:1"
           d="m 259.91597,190.34079 c 0.0457,-0.30666 0.71532,-0.0152 0.85863,-0.24557 0.3359,-0.54006 0.32846,-1.39954 0.90358,-1.2661 0.82049,0.19038 2.40186,0.98673 2.25024,2.0125 -0.15161,1.02577 -1.97886,1.89301 -2.7996,1.70436 -0.82074,-0.18865 -1.36401,-1.17284 -1.21378,-2.19893"
           sodipodi:nodetypes="cssssc" />
        <path
           id="path1066"
           style="fill:none;fill-opacity:1;stroke:#ff000e;stroke-width:0.8;stroke-miterlimit:4;stroke-dasharray:none;stroke-opacity:1"
           d="m 244.05057,197.44516 c 0.21036,-0.97418 1.29487,-1.61694 2.42304,-1.43608 1.12818,0.18086 1.66074,1.09489 1.66487,2.09142 0.008,1.94897 -1.00631,2.90315 -2.42024,1.4396 -0.79393,-0.8218 -1.8755,-1.11421 -1.66894,-2.08899"
           sodipodi:nodetypes="csssc" />
        <path
           id="path1068"
           style="fill:none;fill-opacity:1;stroke:#ff000e;stroke-width:0.8;stroke-miterlimit:4;stroke-dasharray:none;stroke-opacity:1"
           d="m 255.0183,198.49404 c 0.24861,-1.31838 1.5303,-3.2954 2.86359,-0.98258 0.66875,1.16006 2.21393,0.76421 1.96757,1.43096 -0.24637,0.66675 -1.96924,-0.0149 -2.86028,0.98499 -2.42948,2.72638 -2.25013,-0.67496 -1.97239,-1.42931"
           sodipodi:nodetypes="csssc" />
        <path
           id="path1070"
           style="fill:none;fill-opacity:1;stroke:#ff000e;stroke-width:0.8;stroke-miterlimit:4;stroke-dasharray:none;stroke-opacity:1"
           d="m 236.87382,190.75339 c 0.23905,-0.92291 1.47145,-1.53183 2.75346,-1.36049 1.28201,0.17134 2.12878,1.05815 1.89189,1.98134 -0.23689,0.92319 -1.87968,0.40702 -2.75027,1.36383 -1.68723,1.85431 -2.17555,-0.83404 -1.89652,-1.97904"
           sodipodi:nodetypes="csssc" />
        <path
           style="fill:none;fill-opacity:1;stroke:#ff000e;stroke-width:0.8;stroke-miterlimit:4;stroke-dasharray:none;stroke-opacity:1"
           d="m 258.47292,177.55258 c -0.29681,1.06713 -0.18035,0.31778 -0.47247,0.75596 -0.0629,0.0944 0.0504,0.27724 0,0.37797 -0.079,0.15806 -0.47544,1.31994 -0.28348,1.51191 0.0223,0.0223 0.0722,-0.0223 0.0945,0 0.0472,0.0472 -0.0472,0.23623 0,0.28348 0.126,0.12599 0.0945,-0.15749 0.0945,0.0945"
           id="path1080" />
        <path
           style="fill:none;fill-opacity:1;stroke:#ff000e;stroke-width:0.8;stroke-miterlimit:4;stroke-dasharray:none;stroke-opacity:1"
           d="m 243.73185,175.09574 c 0.17779,0.21544 0.0925,0.70366 0.18899,0.94494 0.0331,0.0827 0.13957,0.11486 0.18899,0.18899 0.0921,0.13808 0.0152,0.50297 0.0945,0.66146 0.0398,0.0797 0.16082,0.10447 0.18899,0.18898 0.0469,0.14062 0.0292,0.34197 0.0945,0.47247 0.0141,0.0282 0.0722,-0.0223 0.0945,0 0.0445,0.0445 -0.0564,0.16082 0,0.18899 0.0845,0.0423 0.21666,-0.0668 0.28348,0 0.0907,0.0907 0.0396,0.12801 0.28348,0.18899 0.24033,0.0601 1.17525,0.0532 1.22842,0 0.126,-0.12599 -0.15748,-0.0945 0.0945,-0.0945"
           id="path1082" />
        <path
           style="fill:none;fill-opacity:1;stroke:#ff000e;stroke-width:0.8;stroke-miterlimit:4;stroke-dasharray:none;stroke-opacity:1"
           d="m 241.74748,181.33234 c 0.30515,0.43655 0.94494,0.94624 0.94494,1.51191"
           id="path1084" />
        <path
           style="fill:none;fill-opacity:1;stroke:#ff000e;stroke-width:0.8;stroke-miterlimit:4;stroke-dasharray:none;stroke-opacity:1"
           d="m 238.81816,179.82044 c -0.35256,0.28422 -0.0324,0.63454 -0.0945,0.94494 -0.0392,0.19586 -0.41918,1.09273 -0.28349,1.22842 0.0445,0.0446 0.14445,-0.0445 0.18899,0 0.126,0.126 -0.15749,0.0945 0.0945,0.0945"
           id="path1086" />
        <path
           style="fill:none;fill-opacity:1;stroke:#ff000e;stroke-width:0.8;stroke-miterlimit:4;stroke-dasharray:none;stroke-opacity:1"
           d="m 238.72367,193.90006 c 0.25198,-0.1575 0.48615,-0.34795 0.75595,-0.47248 0.29356,-0.13549 0.49163,-0.0304 0.75595,-0.18898 0.42481,-0.25489 0.002,-0.0966 0.28348,-0.37798 0.126,-0.12599 0.0945,0.15749 0.0945,-0.0945"
           id="path1088" />
        <path
           style="fill:none;fill-opacity:1;stroke:#ff000e;stroke-width:0.8;stroke-miterlimit:4;stroke-dasharray:none;stroke-opacity:1"
           d="m 229.46325,183.50571 c 0,0.12599 0.0156,0.25296 0,0.37797 -0.0362,0.28936 -0.25337,1.09967 -0.0945,1.41741 0.0141,0.0282 0.0722,-0.0223 0.0945,0 0.0368,0.0368 0,0.32032 0,0.37798"
           id="path1090" />
        <path
           style="fill:none;fill-opacity:1;stroke:#ff000e;stroke-width:0.465;stroke-opacity:1"
           d="m 252.61429,167.15824 c 0.18899,0 0.37913,-0.0209 0.56697,0 0.48211,0.0536 0.90855,0.54877 1.32291,0.75595 0.0756,0.0378 0.20789,-0.0378 0.28349,0 0.13914,0.0696 0.12537,0.12537 0.18898,0.18899 0.16419,0.16419 0.29831,0.0364 0.47247,0.0945 0.71605,0.23869 -0.0341,-0.0341 0.18899,0.18899 0.0446,0.0445 0.14444,-0.0445 0.18899,0 0.0223,0.0223 -0.0282,0.0804 0,0.0945 0.0564,0.0282 0.12922,-0.0199 0.18899,0 0.0979,0.0326 0.18973,0.14211 0.28348,0.18898 0.11998,0.06 0.34688,-0.0419 0.47247,0 0.17152,0.0572 0.24512,0.13215 0.47247,0.18899 0.0504,0.0126 0.24883,-0.0346 0.28348,0 0.0704,0.0704 0.0392,0.20061 0.0945,0.28348 0.13443,0.20165 0.31813,0.31813 0.47247,0.47247 0.0498,0.0498 0.0359,0.14992 0.0945,0.18899 0.14175,0.0945 0.21248,0.0393 0.37798,0.0945 0.10999,0.0367 0.25078,0.26713 0.28348,0.28348 0.0845,0.0423 0.21666,-0.0668 0.28348,0 0.0223,0.0223 -0.0223,0.0722 0,0.0945 0.0445,0.0445 0.14445,-0.0445 0.18899,0 0.0619,0.0619 0.14165,0.23614 0.18899,0.28348 0.0592,0.0592 0.18516,-0.004 0.28348,0.0945"
           id="path1092" />
        <path
           style="fill:none;fill-opacity:1;stroke:#ff000e;stroke-width:0.8;stroke-miterlimit:4;stroke-dasharray:none;stroke-opacity:1"
           d="m 256.67753,197.11285 c -0.22427,0.20551 0.47248,0.7465 0.47248,0.85045"
           id="path1094" />
        <path
           style="fill:none;fill-opacity:1;stroke:#ff000e;stroke-width:0.8;stroke-miterlimit:4;stroke-dasharray:none;stroke-opacity:1"
           d="m 245.43274,200.23116 c 0.2575,0.57237 1.25178,0.21234 1.41742,0.37797 0.0223,0.0223 -0.0223,0.0722 0,0.0945 0.25546,0.25546 0.64479,0.0167 0.75595,-0.0945 0.0445,-0.0445 -0.0282,-0.13264 0,-0.18899 0.0398,-0.0797 0.14914,-0.1093 0.18899,-0.18898 0.0285,-0.0571 -0.0437,-0.23981 0,-0.28349 0.0472,-0.0472 0.14174,-0.0472 0.18898,-0.0945 0.0445,-0.0446 -0.0445,-0.14444 0,-0.18899 0.15086,-0.15085 0.47247,-0.2316 0.47247,-0.56696"
           id="path1096" />
        <path
           style="fill:none;fill-opacity:1;stroke:#ff000e;stroke-width:0.8;stroke-miterlimit:4;stroke-dasharray:none;stroke-opacity:1"
           d="m 261.02426,188.32491 c -0.14154,0.33106 -0.35564,0.45013 -0.56696,0.66145 -0.0787,0.0788 0.0787,0.39373 0,0.47247 -0.0683,0.0683 -0.24103,0.21501 -0.37798,0.28349 -0.0563,0.0282 -0.14444,-0.0446 -0.18899,0 -0.0223,0.0223 0.0282,0.0804 0,0.0945 -0.0563,0.0282 -0.13264,-0.0282 -0.18898,0 -0.004,0.002 -0.16865,1.30257 -0.18899,1.32292 -0.0223,0.0223 -0.0722,-0.0223 -0.0945,0 -0.12036,0.12036 0.0945,0.32647 0.0945,0.37797"
           id="path1098" />
        <path
           style="fill:none;fill-opacity:1;stroke:#ff000e;stroke-width:0.8;stroke-miterlimit:4;stroke-dasharray:none;stroke-opacity:1"
           d="m 248.55105,187.94693 c 0.44339,0.11391 0.71271,0.34275 0.85044,0.75595 0.0199,0.0598 -0.0282,0.13264 0,0.18899 0.0446,0.0891 0.18899,0.063 0.28349,0.0945 0.18076,0.0603 0.85044,-0.12126 0.85044,0.0945"
           id="path1100" />
        <path
           style="fill:none;fill-opacity:1;stroke:#ff000e;stroke-width:0.8;stroke-miterlimit:4;stroke-dasharray:none;stroke-opacity:1"
           d="m 250.05571,182.99461 c 0.22273,0 0.44978,-0.0437 0.66818,0 0.0437,0.009 -0.0315,0.10213 0,0.13363 0.10773,0.10773 0.91428,0.1548 0.93544,0.13364 0.13392,-0.13392 -0.0894,-0.62305 0,-0.80181 0.0327,-0.0653 0.25907,-0.27547 0.13363,-0.4009 -0.0779,-0.0779 -0.46686,-0.26727 -0.66817,-0.26727"
           id="path1102" />
        <path
           style="fill:none;fill-opacity:1;stroke:#ff000e;stroke-width:0.8;stroke-miterlimit:4;stroke-dasharray:none;stroke-opacity:1"
           d="m 238.29585,199.96622 c 0.0891,0.17818 0.14774,0.37517 0.26727,0.53454 0.20064,0.26751 1.18737,-0.19277 1.33635,-0.26727 0.0797,-0.0398 0.20427,0.063 0.26727,0 0.14909,-0.14909 0.15375,-0.42101 0.4009,-0.66817"
           id="path1104" />
        <path
           style="fill:none;fill-opacity:1;stroke:#ff000e;stroke-width:0.8;stroke-miterlimit:4;stroke-dasharray:none;stroke-opacity:1"
           d="m 250.72389,204.37617 c 0.31691,0.0499 1.76833,0.23619 2.13815,-0.13363 0.0668,-0.0668 0.0668,-0.20046 0.13364,-0.26727 0.0668,-0.0668 0.33408,0.0668 0.4009,0 0.17818,-0.17818 -0.22272,-0.13364 0.13364,-0.13364"
           id="path1106" />
      </g>
    </g>
    <g
       id="g1120"
       inkscape:export-xdpi="96"
       inkscape:export-ydpi="96"
       transform="matrix(1.0534282,0,0,0.99291817,271.02273,-1.7260944)">
      <path
         style="fill:#f8841a;fill-opacity:1;stroke:#f8841a;stroke-width:0.264583px;stroke-linecap:butt;stroke-linejoin:miter;stroke-opacity:1"
         d="M 76.171816,140.04923 128.0221,140.3165 133.36749,111.05049 132.03115,97.820645 120.40492,89.668926 99.691533,86.060787 80.581761,94.078874 70.024616,105.57146 Z"
         id="path1108"
         transform="matrix(0.9831325,0,0,1.0071447,0.96218915,-0.6321079)"
         sodipodi:nodetypes="ccccccccc" />
      <g
         id="g1116"
         transform="matrix(0.94035379,0,0,1.0441024,3.6414645,-4.9412869)">
        <path
           id="path1110"
           style="fill:#ffdbac;fill-opacity:1;stroke:#ffc171;stroke-width:0.264583;stroke-opacity:1"
           d="m 42.732707,159.35931 c -0.944334,7.77758 -4.408081,12.7913 -8.582587,18.48801 -4.501011,6.14228 -11.462716,15.05787 -19.738637,15.05787 -15.9694145,0 -33.555819,-11.65396 -33.555815,-27.72775 10e-7,-6.40717 5.343049,-13.05733 9.5032942,-18.80335 6.2766348,-8.66913 11.7483638,-13.54484 21.3035848,-14.51001 8.748262,-0.88367 17.948846,3.27397 23.228427,8.98781 4.800913,5.19579 8.764439,10.90797 7.841733,18.50742 z"
           sodipodi:nodetypes="ssssssss"
           transform="rotate(-34.819702)" />
        <path
           style="fill:#ff8200;fill-opacity:1;stroke:#000000;stroke-width:0.275313px;stroke-linecap:butt;stroke-linejoin:miter;stroke-opacity:1"
           d="m 77.789873,140.04308 4.341668,5.07712 6.946675,-4.6763 2.605004,7.88291 7.380842,-7.34848 4.341668,3.073 4.48639,-3.2066 5.49946,3.74104 2.605,-3.073 5.78889,5.47795 4.92057,-6.01239 2.46027,3.20661 4.77584,-3.87465 4.4864,-7.48208 -3.47334,2.27135 7.23612,-11.22311 -6.65723,6.01238 9.26223,-17.36911 -6.80194,7.61568 9.84111,-20.976542 -7.95972,8.417332 4.92055,-25.385617 -6.5125,15.632198 c 0,0 -1.59195,-24.984796 -1.73667,-24.183144 -0.14473,0.801648 -4.92056,20.041283 -4.92056,20.041283 l -6.80196,-23.782324 0.86834,19.774067 -18.95863,-20.442109 3.90751,17.903546 -9.69641,-6.413212 -6.512505,-6.947645 C 90.911619,84.515598 92.73027,79.405208 91.065121,83.807032 L 87.775715,90.073478 74.7507,84.194701 c 0,0 2.749725,11.891162 3.039173,12.559204 0.289443,0.668043 -13.16974,-12.158378 -13.16974,-12.158378 l 6.512509,20.976543 -12.590848,-8.550949 14.472239,22.713459 -16.35363,-9.21899 18.813912,18.97241 -12.880293,-4.80991 z"
           id="path1112"
           sodipodi:nodetypes="cccccccccccccccccccccccsccccccccccscccccccc" />
        <path
           id="path1114"
           style="fill:#000000;fill-opacity:1;stroke:none;stroke-width:0.319401;stroke-opacity:1"
           d="m 59.852367,195.89745 4.995229,-30.15821 5.226235,-6.09463 7.023436,-3.82367 7.20708,-0.35559 34.868363,0.74531 9.64489,3.07424 v 0 l 5.41655,7.13411 1.73434,28.42988 -0.56818,27.15536 H 58.340462 Z"
           sodipodi:nodetypes="ccccccccccccc" />
      </g>
      <path
         sodipodi:type="star"
         style="fill:none;fill-opacity:1;stroke:#ff8200;stroke-width:3.5506;stroke-miterlimit:4;stroke-dasharray:none;stroke-opacity:1"
         id="path1178"
         sodipodi:sides="5"
         sodipodi:cx="1138.5714"
         sodipodi:cy="428.57144"
         sodipodi:r1="101.51907"
         sodipodi:r2="50.759537"
         sodipodi:arg1="0.88506682"
         sodipodi:arg2="1.5133853"
         inkscape:flatsided="false"
         inkscape:rounded="0"
         inkscape:randomized="0"
         transform="matrix(0.17496797,0.14193116,-0.12615877,0.17505771,-46.605961,-43.723552)"
         inkscape:transform-center-x="-0.43473871"
         inkscape:transform-center-y="2.1395004"
         d="m 1202.8571,507.14287 -61.3731,-27.89552 -57.7731,34.74334 7.5649,-66.98953 -50.8958,-44.20914 66.0486,-13.50629 26.3177,-62.0661 33.2554,58.64218 67.161,5.85019 -45.4956,49.74915 z" />
    </g>
  </g>
</svg>
