<svg xmlns="http://www.w3.org/2000/svg" xmlns:xlink="http://www.w3.org/1999/xlink" width="2080" height="2028" preserveAspectRatio="xMidYMid meet" viewBox="0 0 2080 2028" style="-ms-transform: rotate(360deg); -webkit-transform: rotate(360deg); transform: rotate(360deg);"><path d="M0 1121q0 25 18 42.5t43 17.5h318q23 0 40-14t21-36l96-562l173 1406q4 23 20.5 38t38.5 15q24 0 41-15t21-38L963 943l111 299q6 18 21.5 29t34.5 11h5q19-1 34.5-14t20.5-33l163-732l76 1406q1 23 16 39.5t38 18.5t41-11t23-35l176-740h296q25 0 43-17.5t18-42.5t-18-43t-43-18h-344q-21 0-37.5 13t-21.5 33l-89 378l-77-1426q-1-23-17-39.5T1395 1q-23-2-41.5 11.5T1330 49l-213 957l-124-337q-7-19-25.5-30t-38.5-9q-21 2-35.5 17T875 683l-105 801L607 145q-4-23-20-37.5T549 92q-23-1-40.5 13T487 142l-158 918H61q-25 0-43 18t-18 43z" fill="#626262"/><rect x="0" y="0" width="2080" height="2028" fill="rgba(0, 0, 0, 0)" /></svg>